HIERARCHY
ROOT reference
{
  OFFSET 0 0 0
  CHANNELS 6 Xposition Yposition Zposition Zrotation Xrotation Yrotation
  JOINT Hips
  {
    OFFSET 352.076 86.5813 226.294
    CHANNELS 3 Zrotation Xrotation Yrotation
    JOINT RightUpLeg
    {
      OFFSET -9.24446 -1.53332 -0.0100408
      CHANNELS 3 Zrotation Xrotation Yrotation
      JOINT RightLeg
      {
        OFFSET 0.0379954 -41.8775 0.0555708
        CHANNELS 3 Zrotation Xrotation Yrotation
        JOINT RightFoot
        {
          OFFSET 0.0737403 -43.7597 -0.208372
          CHANNELS 3 Zrotation Xrotation Yrotation
          End Site
          {
            OFFSET 0 -7.69 17.5
          }
        }
      }
    }
    JOINT LeftUpLeg
    {
      OFFSET 9.31004 -1.65148 -0.0333589
      CHANNELS 3 Zrotation Xrotation Yrotation
      JOINT LeftLeg
      {
        OFFSET 0.0881386 -41.8624 -0.0616493
        CHANNELS 3 Zrotation Xrotation Yrotation
        JOINT LeftFoot
        {
          OFFSET 0.763074 -39.9619 0.249975
          CHANNELS 3 Zrotation Xrotation Yrotation
          End Site
          {
            OFFSET 0 -7.69 17.5
          }
        }
      }
    }
    JOINT Spine
    {
      OFFSET 0.105097 14.2958 0.096313
      CHANNELS 3 Zrotation Xrotation Yrotation
      JOINT Spine1
      {
        OFFSET 0.0609256 9.72986 0.0283835
        CHANNELS 3 Zrotation Xrotation Yrotation
        JOINT Spine2
        {
          OFFSET 0.0349843 10.1145 -0.0203086
          CHANNELS 3 Zrotation Xrotation Yrotation
          JOINT Spine3
          {
            OFFSET 0.0323734 9.71864 0.0196425
            CHANNELS 3 Zrotation Xrotation Yrotation
            JOINT Neck
            {
              OFFSET 0.219168 10.3708 0.0833364
              CHANNELS 3 Zrotation Xrotation Yrotation
              JOINT Head
              {
                OFFSET 0.200748 9.48753 0.0966912
                CHANNELS 3 Zrotation Xrotation Yrotation
                End Site
                {
                  OFFSET 0 15.95 0
                }
              }
            }
            JOINT RightShoulder
            {
              OFFSET -3.14734 6.94135 0.063802
              CHANNELS 3 Zrotation Xrotation Yrotation
              JOINT RightArm
              {
                OFFSET -12.765 0.137663 0.228635
                CHANNELS 3 Zrotation Xrotation Yrotation
                JOINT RightForeArm
                {
                  OFFSET -26.5344 -0.389186 -0.00603507
                  CHANNELS 3 Zrotation Xrotation Yrotation
                  JOINT RightHand
                  {
                    OFFSET -26.1352 -0.0585664 0.0704552
                    CHANNELS 3 Zrotation Xrotation Yrotation
                    JOINT RightHandThumb1
                    {
                      OFFSET -2.48905 0.190105 3.12053
                      CHANNELS 3 Zrotation Xrotation Yrotation
                      JOINT RightHandThumb2
                      {
                        OFFSET -3.68274 0 0
                        CHANNELS 3 Zrotation Xrotation Yrotation
                        JOINT RightHandThumb3
                        {
                          OFFSET -2.55832 0 0
                          CHANNELS 3 Zrotation Xrotation Yrotation
                          End Site
                          {
                            OFFSET -2.194 0 0
                          }
                        }
                      }
                    }
                    JOINT RightInHandIndex
                    {
                      OFFSET -3.22368 0.508421 1.97842
                      CHANNELS 3 Zrotation Xrotation Yrotation
                      JOINT RightHandIndex1
                      {
                        OFFSET -5.21684 -0.091368 0.999158
                        CHANNELS 3 Zrotation Xrotation Yrotation
                        JOINT RightHandIndex2
                        {
                          OFFSET -3.61937 0 0
                          CHANNELS 3 Zrotation Xrotation Yrotation
                          JOINT RightHandIndex3
                          {
                            OFFSET -2.0521 0 0
                            CHANNELS 3 Zrotation Xrotation Yrotation
                            End Site
                            {
                              OFFSET -1.805 0 0
                            }
                          }
                        }
                      }
                    }
                    JOINT RightInHandMiddle
                    {
                      OFFSET -3.38211 0.517263 0.756737
                      CHANNELS 3 Zrotation Xrotation Yrotation
                      JOINT RightHandMiddle1
                      {
                        OFFSET -5.17411 -0.084 0.313895
                        CHANNELS 3 Zrotation Xrotation Yrotation
                        JOINT RightHandMiddle2
                        {
                          OFFSET -3.94947 0 0
                          CHANNELS 3 Zrotation Xrotation Yrotation
                          JOINT RightHandMiddle3
                          {
                            OFFSET -2.47579 0 0
                            CHANNELS 3 Zrotation Xrotation Yrotation
                            End Site
                            {
                              OFFSET -1.975 0 0
                            }
                          }
                        }
                      }
                    }
                    JOINT RightInHandRing
                    {
                      OFFSET -3.36516 0.537895 -0.128947
                      CHANNELS 3 Zrotation Xrotation Yrotation
                      JOINT RightHandRing1
                      {
                        OFFSET -4.63474 -0.022105 -0.478947
                        CHANNELS 3 Zrotation Xrotation Yrotation
                        JOINT RightHandRing2
                        {
                          OFFSET -3.44238 0 0
                          CHANNELS 3 Zrotation Xrotation Yrotation
                          JOINT RightHandRing3
                          {
                            OFFSET -2.3881 0 0
                            CHANNELS 3 Zrotation Xrotation Yrotation
                            End Site
                            {
                              OFFSET -1.857 0 0
                            }
                          }
                        }
                      }
                    }
                    JOINT RightInHandPinky
                    {
                      OFFSET -3.16105 0.469368 -1.20179
                      CHANNELS 3 Zrotation Xrotation Yrotation
                      JOINT RightHandPinky1
                      {
                        OFFSET -4.14105 -0.022105 -1.09053
                        CHANNELS 3 Zrotation Xrotation Yrotation
                        JOINT RightHandPinky2
                        {
                          OFFSET -2.75653 0 0
                          CHANNELS 3 Zrotation Xrotation Yrotation
                          JOINT RightHandPinky3
                          {
                            OFFSET -1.74189 0 0
                            CHANNELS 3 Zrotation Xrotation Yrotation
                            End Site
                            {
                              OFFSET -1.645 0 0
                            }
                          }
                        }
                      }
                    }
                  }
                }
              }
            }
            JOINT LeftShoulder
            {
              OFFSET 3.26179 6.89719 -0.0373062
              CHANNELS 3 Zrotation Xrotation Yrotation
              JOINT LeftArm
              {
                OFFSET 12.4839 0.0196156 -0.0323257
                CHANNELS 3 Zrotation Xrotation Yrotation
                JOINT LeftForeArm
                {
                  OFFSET 26.5039 -0.120667 0.247609
                  CHANNELS 3 Zrotation Xrotation Yrotation
                  JOINT LeftHand
                  {
                    OFFSET 25.9984 -0.032285 0.00286418
                    CHANNELS 3 Zrotation Xrotation Yrotation
                    JOINT LeftHandThumb1
                    {
                      OFFSET 2.48905 0.190105 3.12053
                      CHANNELS 3 Zrotation Xrotation Yrotation
                      JOINT LeftHandThumb2
                      {
                        OFFSET 3.68274 0 0
                        CHANNELS 3 Zrotation Xrotation Yrotation
                        JOINT LeftHandThumb3
                        {
                          OFFSET 2.55832 0 0
                          CHANNELS 3 Zrotation Xrotation Yrotation
                          End Site
                          {
                            OFFSET 2.194 0 0
                          }
                        }
                      }
                    }
                    JOINT LeftInHandIndex
                    {
                      OFFSET 3.22368 0.508421 1.97842
                      CHANNELS 3 Zrotation Xrotation Yrotation
                      JOINT LeftHandIndex1
                      {
                        OFFSET 5.21684 -0.091368 0.999158
                        CHANNELS 3 Zrotation Xrotation Yrotation
                        JOINT LeftHandIndex2
                        {
                          OFFSET 3.61937 0 0
                          CHANNELS 3 Zrotation Xrotation Yrotation
                          JOINT LeftHandIndex3
                          {
                            OFFSET 2.0521 0 0
                            CHANNELS 3 Zrotation Xrotation Yrotation
                            End Site
                            {
                              OFFSET 1.805 0 0
                            }
                          }
                        }
                      }
                    }
                    JOINT LeftInHandMiddle
                    {
                      OFFSET 3.38211 0.517263 0.756737
                      CHANNELS 3 Zrotation Xrotation Yrotation
                      JOINT LeftHandMiddle1
                      {
                        OFFSET 5.17411 -0.084 0.313895
                        CHANNELS 3 Zrotation Xrotation Yrotation
                        JOINT LeftHandMiddle2
                        {
                          OFFSET 3.94947 0 0
                          CHANNELS 3 Zrotation Xrotation Yrotation
                          JOINT LeftHandMiddle3
                          {
                            OFFSET 2.47579 0 0
                            CHANNELS 3 Zrotation Xrotation Yrotation
                            End Site
                            {
                              OFFSET 1.975 0 0
                            }
                          }
                        }
                      }
                    }
                    JOINT LeftInHandRing
                    {
                      OFFSET 3.36516 0.537895 -0.128947
                      CHANNELS 3 Zrotation Xrotation Yrotation
                      JOINT LeftHandRing1
                      {
                        OFFSET 4.63474 -0.022105 -0.478947
                        CHANNELS 3 Zrotation Xrotation Yrotation
                        JOINT LeftHandRing2
                        {
                          OFFSET 3.44238 0 0
                          CHANNELS 3 Zrotation Xrotation Yrotation
                          JOINT LeftHandRing3
                          {
                            OFFSET 2.3881 0 0
                            CHANNELS 3 Zrotation Xrotation Yrotation
                            End Site
                            {
                              OFFSET 1.857 0 0
                            }
                          }
                        }
                      }
                    }
                    JOINT LeftInHandPinky
                    {
                      OFFSET 3.16105 0.469368 -1.20179
                      CHANNELS 3 Zrotation Xrotation Yrotation
                      JOINT LeftHandPinky1
                      {
                        OFFSET 4.14105 -0.022105 -1.09053
                        CHANNELS 3 Zrotation Xrotation Yrotation
                        JOINT LeftHandPinky2
                        {
                          OFFSET 2.75653 0 0
                          CHANNELS 3 Zrotation Xrotation Yrotation
                          JOINT LeftHandPinky3
                          {
                            OFFSET 1.74189 0 0
                            CHANNELS 3 Zrotation Xrotation Yrotation
                            End Site
                            {
                              OFFSET 1.645 0 0
                            }
                          }
                        }
                      }
                    }
                  }
                }
              }
            }
          }
        }
      }
    }
  }
}
MOTION
Frames: 2
Frame Time: 0.00833333
4.500000000000000000e+02 0.000000000000000000e+00 0.000000000000000000e+00 0.000000000000000000e+00 0.000000000000000000e+00 0.000000000000000000e+00 -3.163293094571523190e-02 -3.294277692256151330e-02 -1.269639460557123734e-01 1.212052115888208464e-01 1.372617470529712350e-02 6.979692819987728947e-02 -3.237606962281543849e-02 -4.971177176479405976e-03 1.410446203952470390e-01 1.608893337659574041e-02 -2.449543831710432329e-02 3.778690271249145888e-03 2.102243954116861380e-01 1.652210316909212273e-01 3.179915998005825029e-01 -2.971081674914417825e-02 -5.285831055244293725e-02 -5.282970560411009292e-02 -1.581102194517233425e-02 3.217297505107887673e-02 -4.437674081180034702e-02 -7.105213681933628123e-02 8.557947164432656503e-03 1.188269655224804960e-01 -1.513420471297313198e-02 5.782183598089673908e-03 2.814507969923001063e-02 -2.458907563903537513e-02 8.725478903469148506e-03 4.337190106236894771e-02 5.117420868559245488e-03 -5.735760763555498246e-04 -8.655074291238827556e-04 7.900545763366448315e-03 -2.895846889306951527e-03 1.556500989307954379e-02 8.928737391964701453e-02 -7.601828701374049695e-03 -2.683926855817604998e-02 3.224970926684824629e-02 -2.552170867151092037e-02 9.933176760551996887e-02 -2.239905343318754002e-02 -7.137645460436434774e-01 -6.419390384029892427e-02 -1.444241965471249889e-01 4.141977620391632531e-01 -1.031250415989286129e+00 -5.322877541379091859e-01 4.329491449168847983e-01 -1.449087630337389188e+00 0.000000000000000000e+00 0.000000000000000000e+00 0.000000000000000000e+00 -2.652328589989284613e-15 -1.056506706567106588e-15 0.000000000000000000e+00 -1.589831182448000680e-16 -9.064991571169764681e-16 0.000000000000000000e+00 -4.725597760267090673e-15 -1.800528141113625604e-16 9.718993993660981833e-16 0.000000000000000000e+00 0.000000000000000000e+00 0.000000000000000000e+00 0.000000000000000000e+00 8.037049349374781613e-16 -2.720186211547541199e-15 0.000000000000000000e+00 7.334591306673148434e-15 1.005790190364846518e-14 -4.725597760267090673e-15 -1.800528141113625604e-16 9.718993993660981833e-16 0.000000000000000000e+00 -1.363033611799644874e-15 -4.590154447744765630e-15 0.000000000000000000e+00 -2.571503006464674026e-15 -5.611713308440815261e-16 0.000000000000000000e+00 3.940109331268359914e-15 1.404578230016590969e-14 -4.725597760267090673e-15 -1.800528141113625604e-16 9.718993993660981833e-16 0.000000000000000000e+00 0.000000000000000000e+00 0.000000000000000000e+00 0.000000000000000000e+00 7.635433148197061093e-16 -5.224147403638202013e-15 0.000000000000000000e+00 -1.019835529618534514e-15 1.370971599729981094e-14 -4.725597760267090673e-15 -1.800528141113625604e-16 9.718993993660981833e-16 0.000000000000000000e+00 0.000000000000000000e+00 0.000000000000000000e+00 0.000000000000000000e+00 -4.281861944990879357e-15 -2.942749254404612516e-14 0.000000000000000000e+00 2.736526914157591690e-15 1.245775937790083879e-14 3.569141490899637587e-02 1.616830289247477015e-02 1.356388881110279498e-01 -1.750971979001216594e+00 -5.443816177781189980e-01 2.126116809790314921e+00 -1.405141185562215123e+00 9.123441642512950533e-01 -1.953318758994274207e+00 1.019625361801902302e-01 -5.953034669682479019e-02 1.174008748343362274e-01 0.000000000000000000e+00 0.000000000000000000e+00 0.000000000000000000e+00 3.419820158791603532e-16 2.957757335087077081e-15 0.000000000000000000e+00 6.758582861407467230e-16 1.401743692252945627e-15 0.000000000000000000e+00 1.877772123655294047e-15 -1.684639741730017861e-15 -1.511788665425437224e-16 0.000000000000000000e+00 0.000000000000000000e+00 0.000000000000000000e+00 0.000000000000000000e+00 7.675477323780967645e-16 2.083455863165647037e-17 0.000000000000000000e+00 -4.741370366441460588e-16 2.362773201836522766e-15 1.877772123655294047e-15 -1.684639741730017861e-15 -1.511788665425437224e-16 0.000000000000000000e+00 3.480301733879250969e-15 2.159942168242411053e-16 0.000000000000000000e+00 -1.996683099232494909e-15 -3.857808845440763090e-15 0.000000000000000000e+00 -1.562039238391072208e-15 2.807539605437154304e-15 1.877772123655294047e-15 -1.684639741730017861e-15 -1.511788665425437224e-16 0.000000000000000000e+00 0.000000000000000000e+00 0.000000000000000000e+00 0.000000000000000000e+00 1.610447330238290085e-15 -1.607045703178709779e-16 0.000000000000000000e+00 1.086071409510641830e-15 -1.166738849751818899e-16 1.877772123655294047e-15 -1.684639741730017861e-15 -1.511788665425437224e-16 0.000000000000000000e+00 0.000000000000000000e+00 0.000000000000000000e+00 0.000000000000000000e+00 -1.908678384620882057e-16 -5.438659708198877474e-15 0.000000000000000000e+00 -2.412506459788906517e-16 -3.629446036866675804e-15
4.500000000000000000e+02 0.000000000000000000e+00 0.000000000000000000e+00 0.000000000000000000e+00 0.000000000000000000e+00 0.000000000000000000e+00 -2.908255362497742802e-02 -1.888596691817449880e-02 -7.918366938478484107e-02 9.967535266376305325e-02 1.080111981775839190e-02 6.207245015185973436e-02 -3.179514989900662086e-02 7.741302201045562395e-03 1.093890934310521312e-01 1.883537287495539586e-02 -3.907122854390514266e-02 -1.232735754674301951e-02 1.989898042680756929e-01 1.427782314924775919e-01 2.989574666903861977e-01 -3.003315178420242447e-03 -6.297704464450656903e-02 -9.107672056583068776e-02 -2.763129902779029590e-02 3.485949489093606579e-02 -5.121663512226454218e-02 -7.869196543928337617e-02 2.237143626574533001e-02 1.592949827068615987e-01 -1.617927015070362226e-02 9.745019064525017871e-03 3.811872369194380106e-02 -2.630066667311266315e-02 1.496655526778137291e-02 5.985772903434453257e-02 6.332869207318327955e-03 -1.950871858748641225e-04 -6.461738487467794285e-03 7.037958915776771664e-03 -1.339790582394295541e-03 1.365250044056842303e-03 1.101351712463043281e-01 -1.084343588946180478e-02 -1.235409736196133590e-01 1.441344276841353272e-02 -6.189615300061065972e-02 1.087673573975984354e-01 -4.133252733456234396e-02 -5.097251027728534334e-01 2.052957521754734949e-02 -2.053317618148571833e-01 1.942539349577720453e-01 -1.074575793131377743e+00 -4.841408982173485143e-01 5.622641275511585102e-01 -1.492599442811314514e+00 0.000000000000000000e+00 0.000000000000000000e+00 0.000000000000000000e+00 -2.817563780030217794e-15 -1.122253249169136640e-15 0.000000000000000000e+00 -7.384048018199354885e-16 -6.989184541207929334e-16 0.000000000000000000e+00 -4.360874161653009355e-15 1.855126982089311650e-16 1.199254239713702200e-15 0.000000000000000000e+00 0.000000000000000000e+00 0.000000000000000000e+00 0.000000000000000000e+00 -1.382095985304507950e-16 -6.171010310467572855e-15 0.000000000000000000e+00 7.280996301391142458e-15 1.050064312784935258e-14 -4.360874161653009355e-15 1.855126982089311650e-16 1.199254239713702200e-15 0.000000000000000000e+00 -1.417017899247106697e-15 -5.708739243755715383e-15 0.000000000000000000e+00 -3.206858793972504361e-15 -5.314610427412015301e-15 0.000000000000000000e+00 3.745726542063374618e-15 1.435467205313736276e-14 -4.360874161653009355e-15 1.855126982089311650e-16 1.199254239713702200e-15 0.000000000000000000e+00 0.000000000000000000e+00 0.000000000000000000e+00 0.000000000000000000e+00 1.936643583163627704e-16 -9.311199954558969488e-15 0.000000000000000000e+00 -4.468869889287856606e-16 1.310084634199159743e-14 -4.360874161653009355e-15 1.855126982089311650e-16 1.199254239713702200e-15 0.000000000000000000e+00 0.000000000000000000e+00 0.000000000000000000e+00 0.000000000000000000e+00 -4.351859194465504754e-15 -3.020870818249810840e-14 0.000000000000000000e+00 2.589870079221135542e-15 1.231409140039871104e-14 2.509978914604133957e-02 2.570577881135783366e-03 1.418051521308644758e-01 -1.834426754107379320e+00 -5.618603700441349158e-01 2.258501590535559878e+00 -1.477102815968340588e+00 7.722736873257037837e-01 -1.924380646205004375e+00 9.235938003801785756e-02 1.057300972495425068e-02 1.027993332263367476e-01 0.000000000000000000e+00 0.000000000000000000e+00 0.000000000000000000e+00 6.777039820307122884e-16 2.430099435832861484e-15 0.000000000000000000e+00 1.613799711099281977e-15 1.286542109349174382e-15 0.000000000000000000e+00 1.806790618596869089e-15 -1.475691670828324282e-15 -3.812402855402716118e-17 0.000000000000000000e+00 0.000000000000000000e+00 0.000000000000000000e+00 0.000000000000000000e+00 7.370629243984965730e-16 -6.903399781532666572e-17 0.000000000000000000e+00 -7.837718988026690546e-16 2.627018673008751860e-15 1.806790618596869089e-15 -1.475691670828324282e-15 -3.812402855402716118e-17 0.000000000000000000e+00 3.284597328593898680e-15 1.634596094759714042e-16 0.000000000000000000e+00 -1.692686465655730515e-15 -2.655065747176516884e-15 0.000000000000000000e+00 -1.571027192985385250e-15 2.800284659646510409e-15 1.806790618596869089e-15 -1.475691670828324282e-15 -3.812402855402716118e-17 0.000000000000000000e+00 0.000000000000000000e+00 0.000000000000000000e+00 0.000000000000000000e+00 1.171322505125217284e-15 -1.059572138347081022e-16 0.000000000000000000e+00 9.726445900689706275e-16 3.368036054048437241e-16 1.806790618596869089e-15 -1.475691670828324282e-15 -3.812402855402716118e-17 0.000000000000000000e+00 0.000000000000000000e+00 0.000000000000000000e+00 0.000000000000000000e+00 -2.322122013896959547e-16 -5.311594753270193623e-15 0.000000000000000000e+00 -4.354182366697620140e-16 -2.551610580369947716e-15
